<svg xmlns="http://www.w3.org/2000/svg" xmlns:xlink="http://www.w3.org/1999/xlink" width="1080" zoomAndPan="magnify" viewBox="0 0 810 809.999993" height="1080" preserveAspectRatio="xMidYMid meet" version="1.0">
  <defs>
    <clipPath id="bad1c870ab">
      <path d="M 405 0 C 181.324219 0 0 181.324219 0 405 C 0 628.675781 181.324219 810 405 810 C 628.675781 810 810 628.675781 810 405 C 810 181.324219 628.675781 0 405 0 Z M 405 0 " clip-rule="nonzero"/>
    </clipPath>
    <clipPath id="d4ac60d692">
      <path d="M 0 0 L 810 0 L 810 810 L 0 810 Z M 0 0 " clip-rule="nonzero"/>
    </clipPath>
    <clipPath id="481a630b12">
      <path d="M 405 0 C 181.324219 0 0 181.324219 0 405 C 0 628.675781 181.324219 810 405 810 C 628.675781 810 810 628.675781 810 405 C 810 181.324219 628.675781 0 405 0 Z M 405 0 " clip-rule="nonzero"/>
    </clipPath>
    <clipPath id="215c14d09c">
      <rect x="0" width="810" y="0" height="810"/>
    </clipPath>
  </defs>
  <g clip-path="url(#bad1c870ab)">
    <g transform="matrix(1, 0, 0, 1, 0, 0.000000000000039746)">
      <g clip-path="url(#215c14d09c)">
        <g clip-path="url(#d4ac60d692)">
          <g clip-path="url(#481a630b12)">
            <rect x="-178.2" width="1166.4" fill="#0099ff" height="1166.39999" y="-178.199998" fill-opacity="1"/>
          </g>
        </g>
      </g>
    </g>
  </g>
  <path fill="#ffffff" d="M 623.347656 235.957031 L 623.347656 574.042969 C 623.347656 589.539062 610.667969 602.21875 595.175781 602.21875 C 579.679688 602.21875 567 589.539062 567 574.042969 L 567 433.175781 L 243 433.175781 L 243 574.042969 C 243 589.539062 230.320312 602.21875 214.824219 602.21875 C 199.332031 602.21875 186.652344 589.539062 186.652344 574.042969 L 186.652344 235.957031 C 186.652344 220.460938 199.332031 207.78125 214.824219 207.78125 C 230.320312 207.78125 243 220.460938 243 235.957031 L 243 376.824219 L 567 376.824219 L 567 235.957031 C 567 220.460938 579.679688 207.78125 595.175781 207.78125 C 610.667969 207.78125 623.347656 220.460938 623.347656 235.957031 Z M 123.261719 277.511719 C 107.765625 277.511719 95.085938 290.191406 95.085938 305.6875 L 95.085938 505.015625 C 95.085938 520.511719 107.765625 533.191406 123.261719 533.191406 C 138.757812 533.191406 151.433594 520.511719 151.433594 505.015625 L 151.433594 305.6875 C 151.433594 290.191406 138.757812 277.511719 123.261719 277.511719 Z M 686.738281 277.511719 C 671.242188 277.511719 658.566406 290.191406 658.566406 305.6875 L 658.566406 505.015625 C 658.566406 520.511719 671.242188 533.191406 686.738281 533.191406 C 702.234375 533.191406 714.914062 520.511719 714.914062 505.015625 L 714.914062 305.6875 C 714.914062 290.191406 702.234375 277.511719 686.738281 277.511719 Z M 686.738281 277.511719 " fill-opacity="1" fill-rule="nonzero"/>
</svg>